<svg xmlns="http://www.w3.org/2000/svg" xmlns:xlink="http://www.w3.org/1999/xlink" width="256" zoomAndPan="magnify" viewBox="0 0 192 191.999996" height="256" preserveAspectRatio="xMidYMid meet" version="1.0"><defs><clipPath id="e23152afda"><path d="M 96 0 C 42.980469 0 0 42.980469 0 96 C 0 149.019531 42.980469 192 96 192 C 149.019531 192 192 149.019531 192 96 C 192 42.980469 149.019531 0 96 0 " clip-rule="nonzero"/></clipPath><clipPath id="46cd5199c6"><path d="M 24.113281 37.328125 L 127 37.328125 L 127 124 L 24.113281 124 Z M 24.113281 37.328125 " clip-rule="nonzero"/></clipPath><clipPath id="6667bcbb4e"><path d="M 65 67 L 167.910156 67 L 167.910156 153.226562 L 65 153.226562 Z M 65 67 " clip-rule="nonzero"/></clipPath></defs><g clip-path="url(#e23152afda)"><rect x="-19.2" width="230.4" fill="#3b67b3" y="-19.2" height="230.399995" fill-opacity="1"/></g><path fill="#f8f2ed" d="M 93.832031 43.75 C 102.164062 43.355469 110.457031 44.984375 118.023438 48.488281 C 123.835938 51.199219 119.792969 59.945312 113.96875 57.246094 C 86.671875 44.578125 55.304688 63.851562 54.25 93.949219 C 54.160156 96.46875 56.167969 98.558594 58.6875 98.558594 L 65.824219 98.558594 L 49.402344 116.292969 L 32.980469 98.558594 L 40.144531 98.558594 C 42.558594 98.558594 44.542969 96.625 44.59375 94.203125 C 45.230469 67.0625 66.738281 45.023438 93.832031 43.75 Z M 93.691406 40.621094 C 64.945312 41.980469 42.152344 65.34375 41.464844 94.140625 C 41.453125 94.855469 40.867188 95.425781 40.144531 95.425781 L 28.847656 95.425781 C 27.703125 95.425781 27.09375 96.8125 27.882812 97.65625 L 48.421875 119.84375 C 48.957031 120.417969 49.847656 120.417969 50.371094 119.84375 L 70.925781 97.65625 C 71.710938 96.800781 71.101562 95.425781 69.945312 95.425781 L 58.6875 95.425781 C 57.9375 95.425781 57.339844 94.804688 57.367188 94.0625 C 58.34375 66.195312 87.394531 48.359375 112.65625 60.085938 C 122.222656 64.4375 128.835938 50.15625 119.347656 45.660156 C 111.320312 41.929688 102.519531 40.210938 93.691406 40.621094 " fill-opacity="1" fill-rule="nonzero"/><g clip-path="url(#46cd5199c6)"><path fill="#f8f2ed" d="M 93.960938 46.679688 C 101.820312 46.296875 109.65625 47.8125 116.804688 51.136719 C 117.59375 51.503906 117.769531 51.824219 117.882812 52.21875 C 118 52.597656 117.949219 53.160156 117.71875 53.667969 C 117.488281 54.179688 117.082031 54.574219 116.714844 54.726562 C 116.332031 54.890625 115.976562 54.953125 115.1875 54.597656 C 86.097656 41.089844 52.46875 61.765625 51.335938 93.847656 C 51.195312 97.972656 54.566406 101.488281 58.699219 101.488281 L 59.132812 101.488281 L 49.402344 112.015625 L 39.660156 101.488281 L 40.144531 101.488281 C 44.113281 101.488281 47.417969 98.253906 47.507812 94.28125 C 48.105469 68.640625 68.367188 47.886719 93.960938 46.679688 Z M 93.550781 37.714844 C 63.863281 39.117188 40.4375 62.976562 38.910156 92.5 L 28.847656 92.5 C 27.117188 92.5 25.59375 93.65625 24.96875 95.070312 C 24.359375 96.46875 24.574219 98.367188 25.757812 99.640625 L 46.285156 121.816406 C 47.925781 123.613281 50.867188 123.613281 52.519531 121.816406 L 73.0625 99.640625 C 74.242188 98.367188 74.449219 96.46875 73.824219 95.070312 C 73.214844 93.65625 71.6875 92.5 69.945312 92.5 L 60.773438 92.5 C 62.847656 67.699219 88.515625 52.089844 111.421875 62.71875 L 111.449219 62.746094 C 114.5 64.132812 117.695312 64.09375 120.238281 62.976562 C 122.78125 61.855469 124.6875 59.792969 125.796875 57.410156 C 126.902344 55.03125 127.234375 52.253906 126.445312 49.582031 C 125.65625 46.910156 123.621094 44.464844 120.582031 43.023438 L 120.554688 43 C 112.109375 39.078125 102.851562 37.269531 93.550781 37.714844 " fill-opacity="1" fill-rule="nonzero"/></g><path fill="#f8f2ed" d="M 143.144531 74.558594 L 159.578125 92.308594 L 152.390625 92.308594 C 149.976562 92.308594 148.015625 94.230469 147.953125 96.648438 C 147.074219 133.914062 108.308594 158.050781 74.523438 142.367188 C 68.710938 139.65625 72.757812 130.921875 78.582031 133.605469 C 105.878906 146.289062 137.242188 127.011719 138.300781 96.917969 C 138.386719 94.394531 136.378906 92.308594 133.847656 92.308594 L 126.722656 92.308594 Z M 143.121094 70.589844 C 142.765625 70.589844 142.421875 70.753906 142.179688 71.007812 L 121.625 93.210938 C 120.835938 94.050781 121.445312 95.425781 122.601562 95.425781 L 133.847656 95.425781 C 134.609375 95.425781 135.207031 96.050781 135.183594 96.800781 C 134.203125 124.65625 105.152344 142.507812 79.890625 130.78125 C 70.328125 126.441406 63.726562 140.699219 73.214844 145.207031 C 109.03125 161.832031 150.140625 136.242188 151.082031 96.726562 C 151.09375 96.011719 151.679688 95.425781 152.390625 95.425781 L 163.699219 95.425781 C 164.84375 95.425781 165.457031 94.050781 164.667969 93.210938 L 144.125 71.007812 C 143.859375 70.726562 143.5 70.574219 143.121094 70.589844 " fill-opacity="1" fill-rule="nonzero"/><g clip-path="url(#6667bcbb4e)"><path fill="#f8f2ed" d="M 143.171875 78.863281 L 152.902344 89.390625 L 152.390625 89.390625 C 148.425781 89.390625 145.128906 92.625 145.027344 96.585938 C 144.199219 131.851562 107.734375 154.535156 75.769531 139.71875 L 75.746094 139.71875 C 74.96875 139.347656 74.789062 139.019531 74.675781 138.636719 C 74.5625 138.242188 74.613281 137.707031 74.84375 137.199219 C 75.070312 136.6875 75.464844 136.304688 75.835938 136.140625 C 76.203125 135.976562 76.558594 135.886719 77.359375 136.253906 C 106.4375 149.761719 140.078125 129.085938 141.199219 97.003906 C 141.351562 92.878906 137.96875 89.390625 133.847656 89.390625 L 133.414062 89.390625 Z M 143.042969 67.660156 C 141.910156 67.683594 140.816406 68.195312 140.054688 69.023438 L 119.5 91.238281 C 118.316406 92.511719 118.101562 94.394531 118.710938 95.808594 C 119.335938 97.207031 120.847656 98.34375 122.589844 98.34375 L 131.785156 98.34375 C 129.726562 123.167969 104.03125 138.761719 81.113281 128.121094 L 81.085938 128.121094 C 78.046875 126.746094 74.855469 126.785156 72.3125 127.890625 C 69.753906 129.011719 67.871094 131.0625 66.765625 133.441406 C 65.671875 135.824219 65.328125 138.597656 66.117188 141.257812 C 66.917969 143.933594 68.925781 146.402344 71.953125 147.839844 L 71.980469 147.839844 C 109.09375 165.066406 151.4375 138.878906 153.550781 98.34375 L 163.699219 98.34375 C 165.429688 98.34375 166.957031 97.222656 167.566406 95.808594 C 168.191406 94.394531 167.988281 92.511719 166.804688 91.238281 L 146.25 69.023438 C 145.433594 68.132812 144.265625 67.632812 143.042969 67.660156 " fill-opacity="1" fill-rule="nonzero"/></g></svg>